<svg width="93" height="33" viewBox="0 0 93 33" fill="none" xmlns="http://www.w3.org/2000/svg">
<g clip-path="url(#clip0_1_1930)">
<path d="M26.5552 26.6052C27.0689 26.6052 27.4942 26.7792 27.8353 27.1229C28.1848 27.4666 28.3532 27.8951 28.3532 28.4043C28.3532 28.9135 28.1848 29.3336 27.8353 29.6858C27.4942 30.0295 27.0689 30.2034 26.5552 30.2034H25.4477V32.0789H24.5551V26.6095H26.5552V26.6052ZM26.5552 29.3548C27.0816 29.3548 27.4605 28.9559 27.4605 28.4001C27.4605 27.8442 27.0816 27.4454 26.5552 27.4454H25.4477V29.3506H26.5552V29.3548Z" fill="#103559"/>
<path d="M29.6967 30.5131C29.8258 31.0612 30.3288 31.3626 31.0099 31.3626C31.4774 31.3626 31.8291 31.21 32.0694 30.9163L32.7995 31.2922C32.3989 31.8167 31.7979 32.079 31.0055 32.079C30.3422 32.079 29.7991 31.8989 29.3895 31.5466C28.98 31.1865 28.7752 30.7324 28.7752 30.1843C28.7752 29.6362 28.98 29.1978 29.3806 28.8376C29.7813 28.4696 30.3066 28.2896 30.9387 28.2896C31.5352 28.2896 32.0294 28.4775 32.4122 28.8454C32.7995 29.2134 32.9954 29.6675 32.9954 30.1921C32.9954 30.2704 32.9865 30.38 32.9642 30.517H29.7012L29.6967 30.5131ZM32.1006 29.8789C31.976 29.2956 31.5085 28.9903 30.9298 28.9903C30.2754 28.9903 29.8169 29.3309 29.6923 29.8789H32.1006Z" fill="#103559"/>
<path d="M35.5275 28.9369H34.5589V30.8177C34.5589 31.3198 34.886 31.3113 35.5275 31.2815V32.0432C34.236 32.2006 33.7134 31.8474 33.7134 30.8219V28.9412H32.9954V28.1242H33.7134V27.2774L34.5589 27.0264V28.1242H35.5275V28.9412V28.9369Z" fill="#103559"/>
<path d="M37.6093 29.8453C38.18 29.9668 38.9195 30.198 38.9034 30.97C38.9034 31.3149 38.7627 31.5892 38.4894 31.7851C38.2162 31.9811 37.8746 32.079 37.4606 32.079C36.7292 32.079 36.1866 31.7616 35.9495 31.2365L36.6368 30.8485C36.7613 31.1934 37.0346 31.3697 37.4566 31.3697C37.8786 31.3697 38.0876 31.2326 38.0876 30.9661C38.0876 30.7349 37.7781 30.5977 37.3843 30.5037C36.8297 30.3665 36.0821 30.151 36.0982 29.3907C36.0982 29.0576 36.2228 28.7912 36.484 28.5913C36.7412 28.3875 37.0708 28.2896 37.4526 28.2896C38.0675 28.2896 38.5618 28.5717 38.823 29.042L38.1478 29.4103C38.0233 29.136 37.7861 28.9989 37.4526 28.9989C37.1512 28.9989 36.9141 29.1282 36.9141 29.3829C36.9141 29.6219 37.2235 29.7434 37.6093 29.8531V29.8453Z" fill="#103559"/>
<path d="M43.9679 27.4101C43.303 27.356 42.9796 27.61 42.9796 28.1681V28.2431H43.9679V29.0427H42.9796V32.0789H42.0734V29.0427H41.4358V28.2431H42.0734V28.1681C42.0734 27.1186 42.7292 26.5438 43.9679 26.6104V27.4101Z" fill="#103559"/>
<path d="M45.0064 31.531C44.5983 31.163 44.3899 30.7167 44.3899 30.1843C44.3899 29.6519 44.5983 29.2056 45.0064 28.8376C45.4145 28.4696 45.9182 28.2896 46.5 28.2896C47.0818 28.2896 47.5854 28.4696 47.9935 28.8376C48.4017 29.2056 48.6101 29.6519 48.6101 30.1843C48.6101 30.7167 48.4017 31.163 47.9935 31.531C47.5854 31.8989 47.0905 32.079 46.5 32.079C45.9095 32.079 45.4145 31.8989 45.0064 31.531ZM46.5 31.3235C46.8517 31.3235 47.1469 31.2139 47.3857 30.9986C47.6245 30.7832 47.7461 30.5092 47.7461 30.1843C47.7461 29.8594 47.6245 29.5853 47.3857 29.37C47.1469 29.1547 46.8517 29.0451 46.5 29.0451C46.1483 29.0451 45.8531 29.1547 45.6143 29.37C45.3755 29.5853 45.2539 29.8594 45.2539 30.1843C45.2539 30.5092 45.3755 30.7832 45.6143 30.9986C45.8531 31.2139 46.1483 31.3235 46.5 31.3235Z" fill="#103559"/>
<path d="M49.9015 28.9811C50.1199 28.5201 50.5393 28.2896 51.1422 28.2896V29.1591C50.8145 29.1348 50.5218 29.2116 50.2728 29.3815C50.0238 29.5473 49.9015 29.8223 49.9015 30.2025V32.079H49.0321V28.3543H49.9015V28.9811Z" fill="#103559"/>
<path d="M57.4725 30.5162C57.4725 30.9621 57.3228 31.3358 57.0195 31.633C56.7161 31.9303 56.348 32.0789 55.9111 32.0789H53.6743V26.6052H55.7453C56.17 26.6052 56.5341 26.7539 56.8253 27.0426C57.1246 27.3314 57.2702 27.6923 57.2702 28.1212C57.2702 28.5968 57.0923 28.9663 56.7404 29.238C57.1934 29.4886 57.4684 29.9429 57.4684 30.512L57.4725 30.5162ZM54.5318 27.4503V28.8898H55.7453C56.1255 28.8898 56.4168 28.5756 56.4168 28.1722C56.4168 27.7688 56.1255 27.4545 55.7453 27.4545H54.5318V27.4503ZM55.9111 31.2339C56.3075 31.2339 56.619 30.8984 56.619 30.4695C56.619 30.0406 56.3075 29.7051 55.9111 29.7051H54.5318V31.2381H55.9111V31.2339Z" fill="#103559"/>
<path d="M59.2371 30.5131C59.366 31.0612 59.8685 31.3626 60.5489 31.3626C61.0158 31.3626 61.3672 31.21 61.6073 30.9163L62.3366 31.2922C61.9364 31.8167 61.336 32.079 60.5445 32.079C59.8819 32.079 59.3393 31.8989 58.9302 31.5466C58.5211 31.1865 58.3165 30.7324 58.3165 30.1843C58.3165 29.6362 58.5211 29.1978 58.9213 28.8376C59.3215 28.4696 59.8463 28.2896 60.4778 28.2896C61.0737 28.2896 61.5673 28.4775 61.9542 28.8454C62.341 29.2134 62.5367 29.6675 62.5367 30.1921C62.5367 30.2704 62.5278 30.38 62.5056 30.517H59.2459L59.2371 30.5131ZM61.6384 29.8789C61.5139 29.2956 61.047 28.9903 60.4689 28.9903C59.8152 28.9903 59.3571 29.3309 59.2326 29.8789H61.6429H61.6384Z" fill="#103559"/>
<path d="M64.1965 29.8453C64.7672 29.9668 65.5067 30.198 65.4906 30.97C65.4906 31.3149 65.35 31.5892 65.0767 31.7851C64.8034 31.9811 64.4618 32.079 64.0478 32.079C63.3164 32.079 62.7739 31.7616 62.5367 31.2365L63.224 30.8485C63.3486 31.1934 63.6218 31.3697 64.0438 31.3697C64.4658 31.3697 64.6748 31.2326 64.6748 30.9661C64.6748 30.7349 64.3653 30.5977 63.9715 30.5037C63.4169 30.3665 62.6694 30.151 62.6854 29.3907C62.6854 29.0576 62.81 28.7912 63.0713 28.5913C63.3285 28.3875 63.658 28.2896 64.0398 28.2896C64.6547 28.2896 65.149 28.5717 65.4102 29.042L64.7351 29.4103C64.6105 29.136 64.3734 28.9989 64.0398 28.9989C63.7384 28.9989 63.5013 29.1282 63.5013 29.3829C63.5013 29.6219 63.8107 29.7434 64.1965 29.8531V29.8453Z" fill="#103559"/>
<path d="M68.445 28.9369H67.4779V30.8177C67.4779 31.3198 67.8045 31.3113 68.445 31.2815V32.0432C67.1556 32.2006 66.6339 31.8474 66.6339 30.8219V28.9412H65.9128V28.1242H66.6339V27.2774L67.4779 27.0264V28.1242H68.445V28.9412V28.9369Z" fill="#103559"/>
<path d="M20.4909 3.07168C20.3804 1.98267 19.9429 1.76318 19.0933 1.76318H15.474C14.6797 1.76318 14.4885 1.89825 14.1869 2.77199L11.4725 11.598L8.75804 2.77199C8.45644 1.89825 8.26528 1.76318 7.47092 1.76318H3.84742C2.99783 1.76318 2.56029 1.98267 2.44985 3.07168L0.529778 20.3987C0.449067 21.0234 0.50429 21.2724 1.05227 21.3526L5.19402 21.952C5.82271 22.0322 5.9629 21.8971 6.04361 21.4328L6.94842 13.3159L8.89398 20.9179C9.08513 21.5426 9.33151 21.7916 9.96446 21.7916H12.9805C13.6092 21.7916 13.8598 21.5468 14.051 20.9179L15.971 13.3159L16.9013 21.4328C16.9821 21.8971 17.1222 22.0322 17.7509 21.952L21.8927 21.3526C22.4407 21.2724 22.4959 21.0276 22.4152 20.3987L20.4909 3.07168Z" fill="#103559"/>
<path d="M30.4633 6.39478C25.8152 6.39478 23.289 9.58067 23.289 13.9737C23.289 18.3668 25.8152 21.5527 30.4633 21.5527C35.1115 21.5527 37.6376 18.3668 37.6376 13.9737C37.6376 9.58067 35.1115 6.39478 30.4633 6.39478ZM30.4633 16.5954C29.3476 16.5954 28.7497 15.5501 28.7497 13.9696C28.7497 12.3891 29.3476 11.3437 30.4633 11.3437C31.579 11.3437 32.1769 12.3891 32.1769 13.9696C32.1769 15.5501 31.579 16.5954 30.4633 16.5954Z" fill="#103559"/>
<path d="M48.0615 6.40319C47.1086 6.40319 39.9792 6.59251 39.5154 7.24459C39.3257 7.46336 39.3257 7.76206 39.3257 8.27531L39.5449 20.1139C39.5702 21.1993 39.819 21.5527 40.7676 21.5527H44.0899C45.0427 21.5527 45.3126 21.1993 45.3126 20.1139V11.9396C45.7215 11.805 45.8564 11.7503 46.3202 11.7209C46.9442 11.6956 47.2435 11.8849 47.4375 12.3982C47.5724 12.9409 47.6019 13.7571 47.6019 14.8677L47.5766 20.1097C47.5766 21.1951 47.876 21.5485 48.8288 21.5485H52.2312C53.1841 21.5485 53.4286 21.1951 53.4539 20.1097L53.6731 12.8862C53.6984 11.1193 53.319 9.49114 52.4209 8.29635C51.4681 7.10155 50.0515 6.39478 48.0657 6.39478L48.0615 6.40319Z" fill="#103559"/>
<path d="M60.8312 8.07886H57.4113C56.4755 8.07886 56.2064 8.40155 56.2064 9.48699V20.1193C56.2064 21.2005 56.4755 21.5525 57.4113 21.5525H60.885C61.8207 21.5525 62.1147 21.2005 62.1147 20.1193L62.0609 9.48699C62.0609 8.43089 61.7669 8.07886 60.8312 8.07886Z" fill="#103559"/>
<path d="M59.3716 0.921143C57.346 0.921143 56.2064 2.16842 56.2064 3.86851C56.2064 5.5686 57.346 6.81588 59.3716 6.81588C61.3971 6.81588 62.5367 5.5686 62.5367 3.86851C62.5367 2.16842 61.3971 0.921143 59.3716 0.921143Z" fill="#103559"/>
<path d="M74.0576 6.83578H71.9539V3.17527C71.9539 2.09099 71.6754 1.76318 70.7114 1.76318H67.4467C66.4784 1.76318 66.1742 2.11621 66.1742 3.17527V6.83578H64.5161C63.6035 6.83578 63.3807 6.99968 63.3807 7.84021V10.7989C63.3807 11.6394 63.6035 11.8033 64.5161 11.8033H66.1742V16.9558C66.1742 20.4271 68.0251 21.9737 71.5126 21.9737C72.5366 21.9737 73.5606 21.8939 74.5289 21.7005C74.9445 21.6207 75.0559 21.5114 75.0559 21.1038L74.9188 16.9515C74.9188 16.5985 74.726 16.464 74.3661 16.5439C74.0619 16.6237 73.7577 16.6784 73.3421 16.6784C72.5409 16.6784 71.9582 16.4052 71.9582 15.2411V11.7949H74.0619C74.9745 11.7949 75.1973 11.631 75.1973 10.7905V7.83181C75.1973 6.99128 74.9745 6.82737 74.0619 6.82737L74.0576 6.83578Z" fill="#103559"/>
<path d="M83.2156 6.39478C78.5674 6.39478 76.0413 9.58067 76.0413 13.9737C76.0413 18.3668 78.5674 21.5527 83.2156 21.5527C87.8637 21.5527 90.3899 18.3668 90.3899 13.9737C90.3899 9.58067 87.8637 6.39478 83.2156 6.39478ZM83.2156 16.5954C82.0998 16.5954 81.502 15.5501 81.502 13.9696C81.502 12.3891 82.0998 11.3437 83.2156 11.3437C84.3313 11.3437 84.9292 12.3891 84.9292 13.9696C84.9292 15.5501 84.3313 16.5954 83.2156 16.5954Z" fill="#103559"/>
<path d="M91.7242 6.98825C91.2365 6.63644 90.4378 6.83971 89.9334 7.44168C89.4289 8.04365 89.4163 8.81762 89.8997 9.16942C90.3874 9.52122 91.1861 9.31796 91.6905 8.71598C92.195 8.11401 92.2076 7.34005 91.7242 6.98825Z" fill="#103559"/>
<path d="M80.2481 5.96499C80.8212 5.87697 81.1968 5.15184 81.0861 4.34287C80.9754 3.5339 80.4259 2.94709 79.8528 3.03511C79.2796 3.12313 78.904 3.84827 79.0147 4.65723C79.1254 5.4662 79.6749 6.05302 80.2481 5.96499Z" fill="#103559"/>
<path d="M87.6752 6.70877C88.4682 7.10908 89.6686 6.35197 90.3521 5.01615C91.0356 3.68033 90.948 2.27054 90.1506 1.87023C89.3576 1.46992 88.1571 2.22703 87.4736 3.56285C86.7902 4.89867 86.8778 6.30846 87.6752 6.70877Z" fill="#103559"/>
<path d="M83.5697 5.5458C84.3689 5.64752 85.1444 4.60073 85.2987 3.21067C85.453 1.81637 84.9307 0.608539 84.1276 0.506827C83.3284 0.405115 82.5529 1.4519 82.3986 2.84196C82.2443 4.23626 82.7665 5.44409 83.5697 5.5458Z" fill="#103559"/>
</g>
<defs>
<clipPath id="clip0_1_1930">
<rect width="92" height="32" fill="white" transform="translate(0.5 0.5)"/>
</clipPath>
</defs>
</svg>
